DataType=double
version=3
OpenSimVersion=4.3
inDegrees=no
endheader
time	ground_thorax_rot_x	ground_thorax_rot_y	ground_thorax_rot_z	ground_thorax_tx	ground_thorax_ty	ground_thorax_tz	clav_prot	clav_elev	scapula_abduction	scapula_elevation	scapula_upward_rot	scapula_winging	shoulder_elv	plane_of_elev	axial_rot	elbow_flexion	pro_sup
0.01095	0.2734439778211639	-1.569147011174306	0.1084045716991248	-0.7608968384938771	0.244759526516151	0.4937661241465038	-0.2657323128231429	-0.1317039688261347	-0.3687891540162537	-0.2223440384865728	0.4187105372978127	0.398653094507572	0.8613317641706674	-0.649755489267005	-0.8909442555158299	0.2549165984950403	-0.295631360813744
0.01991	0.2734418080326747	-1.569104833728165	0.1084063171181454	-0.7609365620459106	0.2447293114438221	0.493788321666585	-0.2657308749879695	-0.1317068635961715	-0.368767404565315	-0.2223603326564565	0.4187084010337483	0.3986679292805275	0.861329197499577	-0.6497354992216825	-0.890943791287685	0.2549195382410629	-0.295630732494737
0.02888	0.2734116624652457	-1.569036989256401	0.1084360372364605	-0.7609772246437148	0.2446917452523091	0.4937968771884848	-0.2657264933278764	-0.1317200284911875	-0.368728022877956	-0.2223901590448648	0.4186899777155628	0.3986897700547667	0.8613093017311538	-0.649698185367626	-0.8909429383162566	0.254918304215114	-0.2956296852199434
0.03983	0.2733931828744177	-1.568942455480764	0.1084541008186469	-0.7610266311473666	0.2446598461397362	0.4938375264040016	-0.2657160183419228	-0.1317460452298674	-0.3686717839314975	-0.222425380940393	0.4186658409602702	0.3987208594760586	0.8612782013854074	-0.6496406494481421	-0.8909412763193907	0.2549153998722182	-0.2956277152109374
0.04879	0.2733368801487828	-1.568840406889874	0.1085099058066026	-0.7610740956273181	0.2446323451037168	0.4938476497435923	-0.2656958412936016	-0.1317903570859458	-0.3686183100714139	-0.2224667603381126	0.4186267505796113	0.3987450019652499	0.8612262588757469	-0.6495814379739017	-0.8909387237545658	0.2549034759959039	-0.2956254924776716
0.05875	0.27321504528222	-1.568569768246855	0.1086292372379156	-0.7610620417790125	0.2446866549876852	0.4939689338815411	-0.2655773540694606	-0.1320289176088232	-0.3684935108284243	-0.2225779395663603	0.4184383040162474	0.3987968727129986	0.8609542790451511	-0.6494177126092996	-0.8909293965600025	0.2548080997036158	-0.2956187107773527
0.0697	0.2731886128128755	-1.568533855699307	0.1086553609622969	-0.7611285864110583	0.2446482566449811	0.4939747258375606	-0.2655666611302468	-0.1320496981418571	-0.3684972937007969	-0.2225962921365795	0.4184127958229092	0.3987963366587134	0.8609228377758449	-0.6494187274744239	-0.8909300074331755	0.2547893098652627	-0.2956188269525681
0.08066	0.2731572397505422	-1.56848532132219	0.1086864446516981	-0.7611855194633519	0.2446124900456978	0.4939857643055532	-0.2655582821087534	-0.1320749307010829	-0.3684891832509562	-0.2226213811597207	0.4183757350280246	0.398803645433412	0.8608799952161295	-0.6494097780284126	-0.8909308386364926	0.2547681484285536	-0.2956189536350545
0.09062000000000001	0.2731124232884943	-1.568428742469334	0.1087309165435026	-0.7612362054471736	0.2445797638983603	0.4939946179188081	-0.2655458263245819	-0.1321136262589344	-0.3684794131192902	-0.2226510719998944	0.4183226571552496	0.398814106583915	0.8608168667818494	-0.6494001496256443	-0.8909322661457838	0.2547378428686105	-0.2956192332675789
0.09958	0.2730789381220195	-1.568372587572214	0.1087641562153575	-0.7612912103737721	0.2445488746011289	0.4940105330393704	-0.2655326894655935	-0.1321525068811423	-0.3684702629056915	-0.2226775430019994	0.4182686038407072	0.3988247607170579	0.8607525685157895	-0.6493921947820527	-0.8909336102662105	0.2547078705283631	-0.2956197673270411
0.10854	0.273032723595276	-1.568320234466599	0.1088100684538365	-0.7613410014381266	0.2445259713694619	0.4940191182635225	-0.2655146076208388	-0.1322046250416202	-0.3684697804765308	-0.2227041225511396	0.4182016104540924	0.398835236549672	0.8606697828255432	-0.6493922644555609	-0.890935767284557	0.2546671884102362	-0.2956207923562164
0.12049	0.2730040875902465	-1.568274411707623	0.1088384676017362	-0.761390895850439	0.2445142709803646	0.4940362664433952	-0.265499572227448	-0.1322476768248125	-0.3684695301323281	-0.2227250800754759	0.4181512422448421	0.3988486077600303	0.8606043804815678	-0.6493918119119718	-0.8909380923396656	0.2546352788758714	-0.2956218980144452
0.13045	0.2729610126835801	-1.568229617530921	0.1088812786060963	-0.7614492229505895	0.2444972782407446	0.4940417127490547	-0.2654829760450494	-0.1322966135267464	-0.3684764374149846	-0.2227471592050357	0.4180949715778634	0.3988619812097073	0.8605302949104404	-0.6493981120999965	-0.8909412172365417	0.2545975851992305	-0.2956235411650103
0.13941	0.272916297515028	-1.568184373654853	0.1089257016361537	-0.761495139503655	0.244480305370142	0.4940493318525711	-0.2654667915437324	-0.1323458962433397	-0.3684787036486986	-0.2227716959800595	0.4180363915800867	0.3988811038204492	0.8604524287254727	-0.6493991148838383	-0.890943774443904	0.2545586266083559	-0.2956250377215552
